<svg xmlns="http://www.w3.org/2000/svg" xmlns:xlink="http://www.w3.org/1999/xlink" contentStyleType="text/css" height="540px" preserveAspectRatio="none" style="width:161px;height:540px;background:#FFFFFF;" version="1.1" viewBox="0 0 161 540" width="161px" zoomAndPan="magnify"><defs/><g><!--class users--><g id="elem_users"><rect codeLine="1" fill="#F1F1F1" height="113.1875" id="users" rx="2.5" ry="2.5" style="stroke:#181818;stroke-width:0.5;" width="139.1826" x="10.98" y="7"/><ellipse cx="57.4063" cy="23" fill="#ADD1B2" rx="11" ry="11" style="stroke:#181818;stroke-width:1.0;"/><path d="M61.5156,29 L53.7969,29 L53.7969,16.6094 L61.5156,16.6094 L61.5156,18.7656 L56.25,18.7656 L56.25,21.4375 L61.0156,21.4375 L61.0156,23.5938 L56.25,23.5938 L56.25,26.8438 L61.5156,26.8438 L61.5156,29 Z " fill="#000000"/><text fill="#000000" font-family="sans-serif" font-size="14" lengthAdjust="spacing" textLength="37.8301" x="77.9063" y="27.8467">users</text><line style="stroke:#181818;stroke-width:0.5;" x1="11.98" x2="149.1626" y1="39" y2="39"/><text fill="#000000" font-family="sans-serif" font-size="14" lengthAdjust="spacing" textLength="92.0049" x="16.98" y="55.9951">_id : ObjectId</text><text fill="#000000" font-family="sans-serif" font-size="14" lengthAdjust="spacing" textLength="127.1826" x="16.98" y="72.292">FirstName : String</text><text fill="#000000" font-family="sans-serif" font-size="14" lengthAdjust="spacing" textLength="125.8633" x="16.98" y="88.5889">LastName : String</text><text fill="#000000" font-family="sans-serif" font-size="14" lengthAdjust="spacing" textLength="111.7061" x="16.98" y="104.8857">Address : String</text><line style="stroke:#181818;stroke-width:0.5;" x1="11.98" x2="149.1626" y1="112.1875" y2="112.1875"/></g><!--class rentals--><g id="elem_rentals"><rect codeLine="8" fill="#F1F1F1" height="113.1875" id="rentals" rx="2.5" ry="2.5" style="stroke:#181818;stroke-width:0.5;" width="137.7129" x="11.71" y="197.19"/><ellipse cx="52.4584" cy="213.19" fill="#ADD1B2" rx="11" ry="11" style="stroke:#181818;stroke-width:1.0;"/><path d="M56.5678,219.19 L48.8491,219.19 L48.8491,206.7994 L56.5678,206.7994 L56.5678,208.9556 L51.3022,208.9556 L51.3022,211.6275 L56.0678,211.6275 L56.0678,213.7837 L51.3022,213.7837 L51.3022,217.0337 L56.5678,217.0337 L56.5678,219.19 Z " fill="#000000"/><text fill="#000000" font-family="sans-serif" font-size="14" lengthAdjust="spacing" textLength="48.4941" x="72.1803" y="218.0367">rentals</text><line style="stroke:#181818;stroke-width:0.5;" x1="12.71" x2="148.4229" y1="229.19" y2="229.19"/><text fill="#000000" font-family="sans-serif" font-size="14" lengthAdjust="spacing" textLength="92.0049" x="17.71" y="246.1851">_id : ObjectId</text><text fill="#000000" font-family="sans-serif" font-size="14" lengthAdjust="spacing" textLength="117.1543" x="17.71" y="262.482">UserId : ObjectId</text><text fill="#000000" font-family="sans-serif" font-size="14" lengthAdjust="spacing" textLength="125.7129" x="17.71" y="278.7789">RentalDate : Date</text><text fill="#000000" font-family="sans-serif" font-size="14" lengthAdjust="spacing" textLength="125.3643" x="17.71" y="295.0757">VideoTitle : String</text><line style="stroke:#181818;stroke-width:0.5;" x1="12.71" x2="148.4229" y1="302.3775" y2="302.3775"/></g><!--class videos--><g id="elem_videos"><rect codeLine="15" fill="#F1F1F1" height="145.7813" id="videos" rx="2.5" ry="2.5" style="stroke:#181818;stroke-width:0.5;" width="147.1328" x="7" y="387.38"/><ellipse cx="53.5493" cy="403.38" fill="#ADD1B2" rx="11" ry="11" style="stroke:#181818;stroke-width:1.0;"/><path d="M57.6587,409.38 L49.9399,409.38 L49.9399,396.9894 L57.6587,396.9894 L57.6587,399.1456 L52.3931,399.1456 L52.3931,401.8175 L57.1587,401.8175 L57.1587,403.9738 L52.3931,403.9738 L52.3931,407.2238 L57.6587,407.2238 L57.6587,409.38 Z " fill="#000000"/><text fill="#000000" font-family="sans-serif" font-size="14" lengthAdjust="spacing" textLength="45.5342" x="74.0493" y="408.2267">videos</text><line style="stroke:#181818;stroke-width:0.5;" x1="8" x2="153.1328" y1="419.38" y2="419.38"/><text fill="#000000" font-family="sans-serif" font-size="14" lengthAdjust="spacing" textLength="92.0049" x="13" y="436.3751">_id : ObjectId</text><text fill="#000000" font-family="sans-serif" font-size="14" lengthAdjust="spacing" textLength="85.832" x="13" y="452.672">Title : String</text><text fill="#000000" font-family="sans-serif" font-size="14" lengthAdjust="spacing" textLength="98.1025" x="13" y="468.9689">Genre : String</text><text fill="#000000" font-family="sans-serif" font-size="14" lengthAdjust="spacing" textLength="111.9453" x="13" y="485.2657">Director : String</text><text fill="#000000" font-family="sans-serif" font-size="14" lengthAdjust="spacing" textLength="123.0811" x="13" y="501.5626">Runtime : Integer</text><text fill="#000000" font-family="sans-serif" font-size="14" lengthAdjust="spacing" textLength="135.1328" x="13" y="517.8595">Description : String</text><line style="stroke:#181818;stroke-width:0.5;" x1="8" x2="153.1328" y1="525.1613" y2="525.1613"/></g><!--link users to rentals--><g id="link_users_rentals"><path codeLine="24" d="M80.57,128.55 C80.57,152.6 80.57,154.66 80.57,178.72 " fill="none" id="users-rentals" style="stroke:#181818;stroke-width:1.0;"/><line style="stroke:#181818;stroke-width:1.0;" x1="76.57" x2="84.57" y1="124.55" y2="124.55"/><line style="stroke:#181818;stroke-width:1.0;" x1="76.57" x2="84.57" y1="127.55" y2="127.55"/><line style="stroke:#181818;stroke-width:1.0;" x1="80.57" x2="80.57" y1="128.55" y2="120.55"/><line style="stroke:#181818;stroke-width:1.0;" x1="80.57" x2="86.57" y1="188.72" y2="196.72"/><line style="stroke:#181818;stroke-width:1.0;" x1="80.57" x2="74.57" y1="188.72" y2="196.72"/><line style="stroke:#181818;stroke-width:1.0;" x1="80.57" x2="80.57" y1="188.72" y2="196.72"/><ellipse cx="80.57" cy="182.72" fill="none" rx="4" ry="4" style="stroke:#181818;stroke-width:1.0;"/><text fill="#000000" font-family="sans-serif" font-size="13" lengthAdjust="spacing" textLength="22.9785" x="81.57" y="163.2569">has</text></g><!--link rentals to videos--><g id="link_rentals_videos"><path codeLine="25" d="M80.57,328.66 C80.57,352.19 80.57,353.88 80.57,378.94 " fill="none" id="rentals-videos" style="stroke:#181818;stroke-width:1.0;"/><line style="stroke:#181818;stroke-width:1.0;" x1="80.57" x2="74.57" y1="318.66" y2="310.66"/><line style="stroke:#181818;stroke-width:1.0;" x1="80.57" x2="86.57" y1="318.66" y2="310.66"/><line style="stroke:#181818;stroke-width:1.0;" x1="80.57" x2="80.57" y1="318.66" y2="310.66"/><ellipse cx="80.57" cy="324.66" fill="none" rx="4" ry="4" style="stroke:#181818;stroke-width:1.0;"/><line style="stroke:#181818;stroke-width:1.0;" x1="84.57" x2="76.57" y1="382.94" y2="382.94"/><line style="stroke:#181818;stroke-width:1.0;" x1="84.57" x2="76.57" y1="379.94" y2="379.94"/><line style="stroke:#181818;stroke-width:1.0;" x1="80.57" x2="80.57" y1="378.94" y2="386.94"/><text fill="#000000" font-family="sans-serif" font-size="13" lengthAdjust="spacing" textLength="55.0278" x="81.57" y="353.4469">contains</text></g><!--SRC=[VP3B2i8m44Nt-OgGVN_0dI1AGHHyRIKsGntHH2PJGPh-kqbQ4H-OJJBdpkLE1YmZtwLgF91NiXKodZqQEPBBmmagBar6KoJF2ts1AAoPqDOPp_KlEZQ6mFiNx8I08OZYGv__HMtZAEKNNMNVH7FAIbUcEpJWDiXd-1bsI_A_h0zhGZEmz84cID7Yw9skcfYIlrvQXXgexmLV4LuPdNqRAIzOXb0KhfN34cA3EcglnBFkN5648FknargvAA3rwW40]--></g></svg>