<svg xmlns="http://www.w3.org/2000/svg" xmlns:xlink="http://www.w3.org/1999/xlink" contentStyleType="text/css" height="1306px" preserveAspectRatio="none" style="width:491px;height:1306px;background:#FFFFFF;" version="1.1" viewBox="0 0 491 1306" width="491px" zoomAndPan="magnify"><defs/><g><!--cluster DVD/Blu-ray Movie Rental System--><g id="cluster_DVD/Blu-ray Movie Rental System"><rect fill="none" height="1183" rx="2.5" ry="2.5" style="stroke:#181818;stroke-width:1.0;" width="330.79" x="155.09" y="7"/><text fill="#000000" font-family="sans-serif" font-size="14" font-weight="bold" lengthAdjust="spacing" textLength="267.0049" x="186.9826" y="21.9951">DVD/Blu-ray Movie Rental System</text></g><g id="elem_Add new video"><ellipse cx="320.489" cy="957.9998" fill="#F1F1F1" rx="73.999" ry="17.1998" style="stroke:#181818;stroke-width:0.5;"/><text fill="#000000" font-family="sans-serif" font-size="14" lengthAdjust="spacing" textLength="103.4277" x="265.7752" y="961.7474">Add new video</text></g><g id="elem_Delete video\n(only if not rented)"><ellipse cx="320.4881" cy="879.9973" fill="#F1F1F1" rx="104.7281" ry="26.0473" style="stroke:#181818;stroke-width:0.5;"/><text fill="#000000" font-family="sans-serif" font-size="14" lengthAdjust="spacing" textLength="88.6895" x="276.1434" y="874.6955">Delete video</text><text fill="#000000" font-family="sans-serif" font-size="14" lengthAdjust="spacing" textLength="131.8652" x="254.5555" y="890.9924">(only if not rented)</text></g><g id="elem_Edit video"><ellipse cx="320.4931" cy="804.0046" fill="#F1F1F1" rx="62.0231" ry="14.8046" style="stroke:#181818;stroke-width:0.5;"/><text fill="#000000" font-family="sans-serif" font-size="14" lengthAdjust="spacing" textLength="69.8018" x="282.5923" y="807.7522">Edit video</text></g><g id="elem_Show entire collection\nof movies"><ellipse cx="320.4867" cy="728.0033" fill="#F1F1F1" rx="120.8167" ry="26.5633" style="stroke:#181818;stroke-width:0.5;"/><text fill="#000000" font-family="sans-serif" font-size="14" lengthAdjust="spacing" textLength="155.0801" x="239.9466" y="723.6025">Show entire collection</text><text fill="#000000" font-family="sans-serif" font-size="14" lengthAdjust="spacing" textLength="68.2295" x="283.3719" y="739.8993">of movies</text></g><g id="elem_Print all available\nmovies\n(which are not rented)"><ellipse cx="320.4877" cy="1136.0009" fill="#F1F1F1" rx="122.6177" ry="37.5709" style="stroke:#181818;stroke-width:0.5;"/><text fill="#000000" font-family="sans-serif" font-size="14" lengthAdjust="spacing" textLength="120.9004" x="260.0376" y="1122.5507">Print all available</text><text fill="#000000" font-family="sans-serif" font-size="14" lengthAdjust="spacing" textLength="50.2852" x="295.3452" y="1138.8476">movies</text><text fill="#000000" font-family="sans-serif" font-size="14" lengthAdjust="spacing" textLength="157.165" x="241.9052" y="1155.1444">(which are not rented)</text></g><g id="elem_Add new user"><ellipse cx="320.4948" cy="650.005" fill="#F1F1F1" rx="71.0748" ry="16.615" style="stroke:#181818;stroke-width:0.5;"/><text fill="#000000" font-family="sans-serif" font-size="14" lengthAdjust="spacing" textLength="95.7236" x="269.633" y="653.7525">Add new user</text></g><g id="elem_Delete user"><ellipse cx="320.4904" cy="583.0021" fill="#F1F1F1" rx="65.7604" ry="15.5521" style="stroke:#181818;stroke-width:0.5;"/><text fill="#000000" font-family="sans-serif" font-size="14" lengthAdjust="spacing" textLength="80.9854" x="276.9977" y="586.7496">Delete user</text></g><g id="elem_Edit user"><ellipse cx="320.4862" cy="517.996" fill="#F1F1F1" rx="56.4062" ry="14.746" style="stroke:#181818;stroke-width:0.5;"/><text fill="#000000" font-family="sans-serif" font-size="14" lengthAdjust="spacing" textLength="62.0977" x="286.4374" y="521.7436">Edit user</text></g><g id="elem_Show all users"><ellipse cx="320.486" cy="451.0032" fill="#F1F1F1" rx="73.016" ry="17.0032" style="stroke:#181818;stroke-width:0.5;"/><text fill="#000000" font-family="sans-serif" font-size="14" lengthAdjust="spacing" textLength="100.8643" x="267.0539" y="454.7508">Show all users</text></g><g id="elem_Rent movie\n(maximum of 3 videos)"><ellipse cx="320.4942" cy="1037.0048" fill="#F1F1F1" rx="122.4742" ry="26.8948" style="stroke:#181818;stroke-width:0.5;"/><text fill="#000000" font-family="sans-serif" font-size="14" lengthAdjust="spacing" textLength="80.1445" x="280.422" y="1031.7031">Rent movie</text><text fill="#000000" font-family="sans-serif" font-size="14" lengthAdjust="spacing" textLength="162.75" x="239.1192" y="1048">(maximum of 3 videos)</text></g><g id="elem_Return rented video\n(must be returned within 2 days)"><ellipse cx="320.4863" cy="366.9993" fill="#F1F1F1" rx="149.3963" ry="32.2793" style="stroke:#181818;stroke-width:0.5;"/><text fill="#000000" font-family="sans-serif" font-size="14" lengthAdjust="spacing" textLength="140.7041" x="250.1342" y="361.6975">Return rented video</text><text fill="#000000" font-family="sans-serif" font-size="14" lengthAdjust="spacing" textLength="231.2461" x="204.8632" y="377.9944">(must be returned within 2 days)</text></g><g id="elem_Print all rented movies\nfrom specific user"><ellipse cx="320.4929" cy="273.0006" fill="#F1F1F1" rx="122.0529" ry="26.8106" style="stroke:#181818;stroke-width:0.5;"/><text fill="#000000" font-family="sans-serif" font-size="14" lengthAdjust="spacing" textLength="158.6758" x="238.155" y="268.5997">Print all rented movies</text><text fill="#000000" font-family="sans-serif" font-size="14" lengthAdjust="spacing" textLength="125.2207" x="254.8826" y="284.8966">from specific user</text></g><g id="elem_Print collection of all rentals\n(with history)"><ellipse cx="320.4879" cy="182.0016" fill="#F1F1F1" rx="135.5579" ry="29.5116" style="stroke:#181818;stroke-width:0.5;"/><text fill="#000000" font-family="sans-serif" font-size="14" lengthAdjust="spacing" textLength="195.7676" x="219.6042" y="177.6007">Print collection of all rentals</text><text fill="#000000" font-family="sans-serif" font-size="14" lengthAdjust="spacing" textLength="93.2285" x="270.8737" y="193.8976">(with history)</text></g><g id="elem_Show card of rentals from\nspecific user\n(with history)"><ellipse cx="320.4907" cy="80.0014" fill="#F1F1F1" rx="140.2107" ry="37.6914" style="stroke:#181818;stroke-width:0.5;"/><text fill="#000000" font-family="sans-serif" font-size="14" lengthAdjust="spacing" textLength="181.3711" x="226.8052" y="67.4521">Show card of rentals from</text><text fill="#000000" font-family="sans-serif" font-size="14" lengthAdjust="spacing" textLength="87.8828" x="273.5493" y="83.749">specific user</text><text fill="#000000" font-family="sans-serif" font-size="14" lengthAdjust="spacing" textLength="93.2285" x="270.8765" y="100.0459">(with history)</text></g><!--entity Admin account--><g id="elem_Admin account"><ellipse cx="58.5444" cy="587.35" fill="#F1F1F1" rx="8" ry="8" style="stroke:#181818;stroke-width:0.5;"/><path d="M58.5444,595.35 L58.5444,622.35 M45.5444,603.35 L71.5444,603.35 M58.5444,622.35 L45.5444,637.35 M58.5444,622.35 L71.5444,637.35 " fill="none" style="stroke:#181818;stroke-width:0.5;"/><text fill="#000000" font-family="sans-serif" font-size="14" lengthAdjust="spacing" textLength="105.0889" x="6" y="651.8451">Admin account</text></g><!--entity User account--><g id="elem_User account"><ellipse cx="58.5474" cy="1106.35" fill="#F1F1F1" rx="8" ry="8" style="stroke:#181818;stroke-width:0.5;"/><path d="M58.5474,1114.35 L58.5474,1141.35 M45.5474,1122.35 L71.5474,1122.35 M58.5474,1141.35 L45.5474,1156.35 M58.5474,1141.35 L71.5474,1156.35 " fill="none" style="stroke:#181818;stroke-width:0.5;"/><text fill="#000000" font-family="sans-serif" font-size="14" lengthAdjust="spacing" textLength="92.1348" x="12.48" y="1170.8451">User account</text></g><!--entity Print collection of my rentals\n(with history)--><g id="elem_Print collection of my rentals\n(with history)"><ellipse cx="320.486" cy="1217.21" fill="#F1F1F1" rx="8" ry="8" style="stroke:#181818;stroke-width:0.5;"/><path d="M320.486,1225.21 L320.486,1252.21 M307.486,1233.21 L333.486,1233.21 M320.486,1252.21 L307.486,1267.21 M320.486,1252.21 L333.486,1267.21 " fill="none" style="stroke:#181818;stroke-width:0.5;"/><text fill="#000000" font-family="sans-serif" font-size="14" lengthAdjust="spacing" textLength="201.332" x="219.82" y="1281.7051">Print collection of my rentals</text><text fill="#000000" font-family="sans-serif" font-size="14" lengthAdjust="spacing" textLength="93.2285" x="219.82" y="1298.002">(with history)</text></g><!--link Admin account to Add new video--><g id="link_Admin account_Add new video"><path d="M65.45,655.61 C77.57,729.66 107.48,887.55 147.09,924 C173.69,948.48 206.619,957.1033 240.749,959.8233 " fill="none" id="Admin account-to-Add new video" style="stroke:#181818;stroke-width:1.0;"/><polygon fill="#181818" points="246.73,960.3,238.0762,955.5977,241.7458,959.9028,237.4407,963.5724,246.73,960.3" style="stroke:#181818;stroke-width:1.0;"/></g><!--link Admin account to Delete video\n(only if not rented)--><g id="link_Admin account_Delete video\n(only if not rented)"><path d="M64.25,655.55 C72.34,704.73 93.53,789.01 147.09,836 C167.75,854.13 189.058,863.5702 215.658,870.0002 " fill="none" id="Admin account-to-Delete video\n(only if not rented)" style="stroke:#181818;stroke-width:1.0;"/><polygon fill="#181818" points="221.49,871.41,213.6818,865.4073,216.63,870.2352,211.8021,873.1834,221.49,871.41" style="stroke:#181818;stroke-width:1.0;"/></g><!--link Admin account to Edit video--><g id="link_Admin account_Edit video"><path d="M70.86,655.62 C83.47,691.57 107.48,743.72 147.09,772 C179.17,794.91 216.922,802.451 252.312,804.691 " fill="none" id="Admin account-to-Edit video" style="stroke:#181818;stroke-width:1.0;"/><polygon fill="#181818" points="258.3,805.07,249.5706,800.5095,253.31,804.7542,249.0653,808.4935,258.3,805.07" style="stroke:#181818;stroke-width:1.0;"/></g><!--link Admin account to Show entire collection\nof movies--><g id="link_Admin account_Show entire collection\nof movies"><path d="M102.69,655.5 C116.17,665.97 131.59,676.49 147.09,684 C171.41,695.8 193.4214,703.2059 219.5314,709.7759 " fill="none" id="Admin account-to-Show entire collection\nof movies" style="stroke:#181818;stroke-width:1.0;"/><polygon fill="#181818" points="225.35,711.24,217.5982,705.1647,220.5012,710.0199,215.646,712.9229,225.35,711.24" style="stroke:#181818;stroke-width:1.0;"/></g><!--link Admin account to Print all available\nmovies\n(which are not rented)--><g id="link_Admin account_Print all available\nmovies\n(which are not rented)"><path d="M61.83,655.59 C68.49,755.21 91.08,1017.68 147.09,1081 C163.43,1099.48 180.2981,1109.8042 203.6781,1118.0042 " fill="none" id="Admin account-to-Print all available\nmovies\n(which are not rented)" style="stroke:#181818;stroke-width:1.0;"/><polygon fill="#181818" points="209.34,1119.99,202.171,1113.2368,204.6218,1118.3352,199.5234,1120.7859,209.34,1119.99" style="stroke:#181818;stroke-width:1.0;"/></g><!--link Admin account to Add new user--><g id="link_Admin account_Add new user"><path d="M111.52,623.6 C153.45,628.92 206.6178,635.6741 251.1078,641.3241 " fill="none" id="Admin account-to-Add new user" style="stroke:#181818;stroke-width:1.0;"/><polygon fill="#181818" points="257.06,642.08,248.6356,636.978,252.0998,641.4501,247.6278,644.9143,257.06,642.08" style="stroke:#181818;stroke-width:1.0;"/></g><!--link Admin account to Delete user--><g id="link_Admin account_Delete user"><path d="M111.52,610.2 C155.08,604.51 211.2406,597.1576 256.2306,591.2776 " fill="none" id="Admin account-to-Delete user" style="stroke:#181818;stroke-width:1.0;"/><polygon fill="#181818" points="262.18,590.5,252.7375,587.7001,257.2222,591.148,253.7743,595.6326,262.18,590.5" style="stroke:#181818;stroke-width:1.0;"/></g><!--link Admin account to Edit user--><g id="link_Admin account_Edit user"><path d="M101.49,578.55 C115.17,567.82 131,557.16 147.09,550 C184.64,533.31 224.5654,525.9712 259.5554,522.1512 " fill="none" id="Admin account-to-Edit user" style="stroke:#181818;stroke-width:1.0;"/><polygon fill="#181818" points="265.52,521.5,256.139,518.5004,260.5495,522.0426,257.0073,526.4531,265.52,521.5" style="stroke:#181818;stroke-width:1.0;"/></g><!--link Admin account to Show all users--><g id="link_Admin account_Show all users"><path d="M75.34,578.47 C89.63,548.55 113.58,508.48 147.09,486 C176.51,466.26 208.7033,457.9497 241.6433,453.9697 " fill="none" id="Admin account-to-Show all users" style="stroke:#181818;stroke-width:1.0;"/><polygon fill="#181818" points="247.6,453.25,238.1852,450.3585,242.6361,453.8498,239.1448,458.3007,247.6,453.25" style="stroke:#181818;stroke-width:1.0;"/></g><!--link Admin account to Rent movie\n(maximum of 3 videos)--><g id="link_Admin account_Rent movie\n(maximum of 3 videos)"><path d="M63.48,655.59 C73.01,741.54 100.08,944.99 147.09,993 C163.19,1009.45 178.7813,1018.2986 200.9313,1025.0586 " fill="none" id="Admin account-to-Rent movie\n(maximum of 3 videos)" style="stroke:#181818;stroke-width:1.0;"/><polygon fill="#181818" points="206.67,1026.81,199.2296,1020.3571,201.8878,1025.3505,196.8944,1028.0087,206.67,1026.81" style="stroke:#181818;stroke-width:1.0;"/></g><!--link Admin account to Return rented video\n(must be returned within 2 days)--><g id="link_Admin account_Return rented video\n(must be returned within 2 days)"><path d="M66.05,578.61 C75.76,533.26 98.38,458.59 147.09,416 C162.08,402.9 174.7258,395.3702 193.6958,388.3202 " fill="none" id="Admin account-to-Return rented video\n(must be returned within 2 days)" style="stroke:#181818;stroke-width:1.0;"/><polygon fill="#181818" points="199.32,386.23,189.4903,385.6158,194.6332,387.9718,192.2772,393.1147,199.32,386.23" style="stroke:#181818;stroke-width:1.0;"/></g><!--link Admin account to Print all rented movies\nfrom specific user--><g id="link_Admin account_Print all rented movies\nfrom specific user"><path d="M59.3,578.48 C61.09,514.75 74.23,387.42 147.09,317 C163.86,300.8 179.98,292.034 202.49,285.324 " fill="none" id="Admin account-to-Print all rented movies\nfrom specific user" style="stroke:#181818;stroke-width:1.0;"/><polygon fill="#181818" points="208.24,283.61,198.4724,282.3477,203.4484,285.0383,200.7577,290.0143,208.24,283.61" style="stroke:#181818;stroke-width:1.0;"/></g><!--link Admin account to Print collection of all rentals\n(with history)--><g id="link_Admin account_Print collection of all rentals\n(with history)"><path d="M63.22,578.57 C72.37,490.79 98.99,279.27 147.09,229 C161.67,213.76 175.0189,205.3162 195.0589,198.1662 " fill="none" id="Admin account-to-Print collection of all rentals\n(with history)" style="stroke:#181818;stroke-width:1.0;"/><polygon fill="#181818" points="200.71,196.15,190.8892,195.407,196.0008,197.8302,193.5775,202.9417,200.71,196.15" style="stroke:#181818;stroke-width:1.0;"/></g><!--link Admin account to Show card of rentals from\nspecific user\n(with history)--><g id="link_Admin account_Show card of rentals from\nspecific user\n(with history)"><path d="M61.53,578.43 C67.56,476.12 88.92,201.21 147.09,135 C161.19,118.95 174.399,109.8028 194.369,101.7128 " fill="none" id="Admin account-to-Show card of rentals from\nspecific user\n(with history)" style="stroke:#181818;stroke-width:1.0;"/><polygon fill="#181818" points="199.93,99.46,190.0866,99.1319,195.2958,101.3373,193.0904,106.5466,199.93,99.46" style="stroke:#181818;stroke-width:1.0;"/></g><!--link User account to Print all available\nmovies\n(which are not rented)--><g id="link_User account_Print all available\nmovies\n(which are not rented)"><path d="M104.82,1136 C130.64,1136 158.36,1136 191.39,1136 " fill="none" id="User account-to-Print all available\nmovies\n(which are not rented)" style="stroke:#181818;stroke-width:1.0;"/><polygon fill="#181818" points="197.39,1136,188.39,1132,192.39,1136,188.39,1140,197.39,1136" style="stroke:#181818;stroke-width:1.0;"/></g><!--link User account to Print collection of my rentals\n(with history)--><g id="link_User account_Print collection of my rentals\n(with history)"><path d="M104.94,1166.3 C118.23,1174.53 132.98,1183.07 147.09,1190 C170.06,1201.29 189.8949,1209.7192 214.0349,1218.9392 " fill="none" id="User account-to-Print collection of my rentals\n(with history)" style="stroke:#181818;stroke-width:1.0;"/><polygon fill="#181818" points="219.64,1221.08,212.6596,1214.1321,214.9691,1219.296,209.8052,1221.6055,219.64,1221.08" style="stroke:#181818;stroke-width:1.0;"/></g><!--link User account to Rent movie\n(maximum of 3 videos)--><g id="link_User account_Rent movie\n(maximum of 3 videos)"><path d="M104.87,1103.79 C118.03,1095.49 132.74,1087.16 147.09,1081 C172.49,1070.1 195.3891,1062.8952 221.9891,1056.2452 " fill="none" id="User account-to-Rent movie\n(maximum of 3 videos)" style="stroke:#181818;stroke-width:1.0;"/><polygon fill="#181818" points="227.81,1054.79,218.1086,1053.0923,222.9593,1056.0027,220.0489,1060.8534,227.81,1054.79" style="stroke:#181818;stroke-width:1.0;"/></g><!--SRC=[hLBBRjj03BphAmYTueCH8BaNQE4U0mGnafClp8goYEp3sANi2aN_lRkMdVYnKXmZEWbBSZWp74srW3Zml6m4AlQaX9qjmXlR5Neqi4BrXakQIwS9KXdjKbDHlFz2ENkPtVxIxTHZ1mzkpGHFP0KrpBiWP4huMq3ysa0AG-p_MLLWQGDhhiYLnxKPQHBgImjxuwpkW6kmJk9oArHDJWP-LonPf7dZDX17eYPGJkjUsSAw6amY6Kxw7prR0TGQS8siyLNJmlQTaSYcOTK0HgnXAdjTyS7dPMKgM_wPzotzn2RLJhacVtiLaPh1FsnQ0r7OVUz4c9prI-ljZlQxkQOD0g_fggaQ2nkMXYtSGONT6SQ7FpkOlJUrTmR2YXJNh79I-icF6oIcUnpKMtVZOcWuYFFT96U4Gb-biTq8f9qBUxJq7EPVKHJnA2PAGgLSQwM4wVJ7MG2pFPS4CJju6CXimmN1pCvT5T1H_VsjnkIFT1m4TrZcGO2pJHS4UM3kga1_uki5mHv1-4B0XmsxAkX5-HpVloKkWq37wamt8Yw3yVcT_mC0]--></g></svg>