<svg xmlns="http://www.w3.org/2000/svg" xmlns:xlink="http://www.w3.org/1999/xlink" contentStyleType="text/css" height="1307px" preserveAspectRatio="none" style="width:509px;height:1307px;background:#FFFFFF;" version="1.1" viewBox="0 0 509 1307" width="509px" zoomAndPan="magnify"><defs/><g><!--cluster DVD/Blu-ray Rental Movies System--><g id="cluster_DVD/Blu-ray Rental Movies System"><rect fill="none" height="1294" rx="2.5" ry="2.5" style="stroke:#181818;stroke-width:1.0;" width="348.76" x="155.09" y="7"/><text fill="#000000" font-family="sans-serif" font-size="14" font-weight="bold" lengthAdjust="spacing" textLength="275.3379" x="191.8011" y="21.9951">DVD/Blu-ray Rental Movies System</text></g><g id="elem_Add new movie"><ellipse cx="329.4654" cy="211.9991" fill="#F1F1F1" rx="75.8454" ry="17.5691" style="stroke:#181818;stroke-width:0.5;"/><text fill="#000000" font-family="sans-serif" font-size="14" lengthAdjust="spacing" textLength="108.1787" x="272.376" y="215.7466">Add new movie</text></g><g id="elem_Delete movie\n(only if not rented)"><ellipse cx="329.4681" cy="132.9973" fill="#F1F1F1" rx="104.7281" ry="26.0473" style="stroke:#181818;stroke-width:0.5;"/><text fill="#000000" font-family="sans-serif" font-size="14" lengthAdjust="spacing" textLength="93.4404" x="282.7479" y="127.6955">Delete movie</text><text fill="#000000" font-family="sans-serif" font-size="14" lengthAdjust="spacing" textLength="131.8652" x="263.5355" y="143.9924">(only if not rented)</text></g><g id="elem_Edit movie"><ellipse cx="329.4659" cy="56.9952" fill="#F1F1F1" rx="63.5759" ry="15.1152" style="stroke:#181818;stroke-width:0.5;"/><text fill="#000000" font-family="sans-serif" font-size="14" lengthAdjust="spacing" textLength="74.5527" x="289.1895" y="60.7427">Edit movie</text></g><g id="elem_Show entire collection\nof movies"><ellipse cx="329.4667" cy="950.0033" fill="#F1F1F1" rx="120.8167" ry="26.5633" style="stroke:#181818;stroke-width:0.5;"/><text fill="#000000" font-family="sans-serif" font-size="14" lengthAdjust="spacing" textLength="155.0801" x="248.9266" y="945.6025">Show entire collection</text><text fill="#000000" font-family="sans-serif" font-size="14" lengthAdjust="spacing" textLength="68.2295" x="292.3519" y="961.8993">of movies</text></g><g id="elem_Print all available\nmovies\n(which are not rented)"><ellipse cx="329.4677" cy="1049.0009" fill="#F1F1F1" rx="122.6177" ry="37.5709" style="stroke:#181818;stroke-width:0.5;"/><text fill="#000000" font-family="sans-serif" font-size="14" lengthAdjust="spacing" textLength="120.9004" x="269.0176" y="1035.5507">Print all available</text><text fill="#000000" font-family="sans-serif" font-size="14" lengthAdjust="spacing" textLength="50.2852" x="304.3252" y="1051.8476">movies</text><text fill="#000000" font-family="sans-serif" font-size="14" lengthAdjust="spacing" textLength="157.165" x="250.8852" y="1068.1444">(which are not rented)</text></g><g id="elem_Add new user"><ellipse cx="329.4748" cy="872.005" fill="#F1F1F1" rx="71.0748" ry="16.615" style="stroke:#181818;stroke-width:0.5;"/><text fill="#000000" font-family="sans-serif" font-size="14" lengthAdjust="spacing" textLength="95.7236" x="278.613" y="875.7525">Add new user</text></g><g id="elem_Delete user"><ellipse cx="329.4704" cy="805.0021" fill="#F1F1F1" rx="65.7604" ry="15.5521" style="stroke:#181818;stroke-width:0.5;"/><text fill="#000000" font-family="sans-serif" font-size="14" lengthAdjust="spacing" textLength="80.9854" x="285.9777" y="808.7496">Delete user</text></g><g id="elem_Edit user"><ellipse cx="329.4662" cy="739.996" fill="#F1F1F1" rx="56.4062" ry="14.746" style="stroke:#181818;stroke-width:0.5;"/><text fill="#000000" font-family="sans-serif" font-size="14" lengthAdjust="spacing" textLength="62.0977" x="295.4174" y="743.7436">Edit user</text></g><g id="elem_Show all users"><ellipse cx="329.466" cy="673.0032" fill="#F1F1F1" rx="73.016" ry="17.0032" style="stroke:#181818;stroke-width:0.5;"/><text fill="#000000" font-family="sans-serif" font-size="14" lengthAdjust="spacing" textLength="100.8643" x="276.0339" y="676.7508">Show all users</text></g><g id="elem_Book movie\n(maximum of 3 movies at one time)"><ellipse cx="329.4708" cy="1250.9962" fill="#F1F1F1" rx="158.3808" ry="34.0762" style="stroke:#181818;stroke-width:0.5;"/><text fill="#000000" font-family="sans-serif" font-size="14" lengthAdjust="spacing" textLength="82.2842" x="288.3287" y="1245.6944">Book movie</text><text fill="#000000" font-family="sans-serif" font-size="14" lengthAdjust="spacing" textLength="252.6016" x="203.17" y="1261.9913">(maximum of 3 movies at one time)</text></g><g id="elem_Return rented movie\n(must be returned within 2 days)"><ellipse cx="329.4663" cy="588.9993" fill="#F1F1F1" rx="149.3963" ry="32.2793" style="stroke:#181818;stroke-width:0.5;"/><text fill="#000000" font-family="sans-serif" font-size="14" lengthAdjust="spacing" textLength="145.4551" x="256.7387" y="583.6975">Return rented movie</text><text fill="#000000" font-family="sans-serif" font-size="14" lengthAdjust="spacing" textLength="231.2461" x="213.8432" y="599.9944">(must be returned within 2 days)</text></g><g id="elem_Print all rented movies\nfrom specific user"><ellipse cx="329.4729" cy="495.0006" fill="#F1F1F1" rx="122.0529" ry="26.8106" style="stroke:#181818;stroke-width:0.5;"/><text fill="#000000" font-family="sans-serif" font-size="14" lengthAdjust="spacing" textLength="158.6758" x="247.135" y="490.5997">Print all rented movies</text><text fill="#000000" font-family="sans-serif" font-size="14" lengthAdjust="spacing" textLength="125.2207" x="263.8626" y="506.8966">from specific user</text></g><g id="elem_Print collection of all rentals\n(with history)"><ellipse cx="329.4679" cy="404.0016" fill="#F1F1F1" rx="135.5579" ry="29.5116" style="stroke:#181818;stroke-width:0.5;"/><text fill="#000000" font-family="sans-serif" font-size="14" lengthAdjust="spacing" textLength="195.7676" x="228.5842" y="399.6007">Print collection of all rentals</text><text fill="#000000" font-family="sans-serif" font-size="14" lengthAdjust="spacing" textLength="93.2285" x="279.8537" y="415.8976">(with history)</text></g><g id="elem_Show card of rentals from\nspecific user\n(with history)"><ellipse cx="329.4707" cy="302.0014" fill="#F1F1F1" rx="140.2107" ry="37.6914" style="stroke:#181818;stroke-width:0.5;"/><text fill="#000000" font-family="sans-serif" font-size="14" lengthAdjust="spacing" textLength="181.3711" x="235.7852" y="289.4521">Show card of rentals from</text><text fill="#000000" font-family="sans-serif" font-size="14" lengthAdjust="spacing" textLength="87.8828" x="282.5293" y="305.749">specific user</text><text fill="#000000" font-family="sans-serif" font-size="14" lengthAdjust="spacing" textLength="93.2285" x="279.8565" y="322.0459">(with history)</text></g><g id="elem_Print collection of my rentals\n(with history)"><ellipse cx="329.4675" cy="1151.9975" fill="#F1F1F1" rx="137.6875" ry="29.9375" style="stroke:#181818;stroke-width:0.5;"/><text fill="#000000" font-family="sans-serif" font-size="14" lengthAdjust="spacing" textLength="201.332" x="225.8014" y="1147.5966">Print collection of my rentals</text><text fill="#000000" font-family="sans-serif" font-size="14" lengthAdjust="spacing" textLength="93.2285" x="279.8532" y="1163.8935">(with history)</text></g><!--entity Admin account--><g id="elem_Admin account"><ellipse cx="58.5444" cy="559.35" fill="#F1F1F1" rx="8" ry="8" style="stroke:#181818;stroke-width:0.5;"/><path d="M58.5444,567.35 L58.5444,594.35 M45.5444,575.35 L71.5444,575.35 M58.5444,594.35 L45.5444,609.35 M58.5444,594.35 L71.5444,609.35 " fill="none" style="stroke:#181818;stroke-width:0.5;"/><text fill="#000000" font-family="sans-serif" font-size="14" lengthAdjust="spacing" textLength="105.0889" x="6" y="623.8451">Admin account</text></g><!--entity User account--><g id="elem_User account"><ellipse cx="58.5474" cy="1122.35" fill="#F1F1F1" rx="8" ry="8" style="stroke:#181818;stroke-width:0.5;"/><path d="M58.5474,1130.35 L58.5474,1157.35 M45.5474,1138.35 L71.5474,1138.35 M58.5474,1157.35 L45.5474,1172.35 M58.5474,1157.35 L71.5474,1172.35 " fill="none" style="stroke:#181818;stroke-width:0.5;"/><text fill="#000000" font-family="sans-serif" font-size="14" lengthAdjust="spacing" textLength="92.1348" x="12.48" y="1186.8451">User account</text></g><!--link Admin account to Add new movie--><g id="link_Admin account_Add new movie"><path d="M64.23,550.39 C74.78,469.98 102.97,288.55 147.09,247 C175.57,220.18 212.1116,211.3435 248.8316,209.0535 " fill="none" id="Admin account-to-Add new movie" style="stroke:#181818;stroke-width:1.0;"/><polygon fill="#181818" points="254.82,208.68,245.5885,205.2479,249.8297,208.9912,246.0864,213.2324,254.82,208.68" style="stroke:#181818;stroke-width:1.0;"/></g><!--link Admin account to Delete movie\n(only if not rented)--><g id="link_Admin account_Delete movie\n(only if not rented)"><path d="M62.57,550.52 C70.56,458.67 95.3,230.29 147.09,177 C167.86,155.62 191.2636,145.1891 220.2436,138.9691 " fill="none" id="Admin account-to-Delete movie\n(only if not rented)" style="stroke:#181818;stroke-width:1.0;"/><polygon fill="#181818" points="226.11,137.71,216.471,135.6877,221.2213,138.7593,218.1498,143.5096,226.11,137.71" style="stroke:#181818;stroke-width:1.0;"/></g><!--link Admin account to Edit movie--><g id="link_Admin account_Edit movie"><path d="M60.76,550.46 C64.93,444.79 82.17,154 147.09,89 C178.72,57.32 224.0005,50.6405 263.9805,51.1705 " fill="none" id="Admin account-to-Edit movie" style="stroke:#181818;stroke-width:1.0;"/><polygon fill="#181818" points="269.98,51.25,261.0338,47.1311,264.9804,51.1837,260.9278,55.1303,269.98,51.25" style="stroke:#181818;stroke-width:1.0;"/></g><!--link Admin account to Show entire collection\nof movies--><g id="link_Admin account_Show entire collection\nof movies"><path d="M65.23,627.53 C77.17,703.19 107.06,867.21 147.09,906 C165.47,923.81 183.9878,933.2547 208.8178,939.9647 " fill="none" id="Admin account-to-Show entire collection\nof movies" style="stroke:#181818;stroke-width:1.0;"/><polygon fill="#181818" points="214.61,941.53,206.9652,935.3206,209.7831,940.2256,204.8781,943.0436,214.61,941.53" style="stroke:#181818;stroke-width:1.0;"/></g><!--link Admin account to Print all available\nmovies\n(which are not rented)--><g id="link_Admin account_Print all available\nmovies\n(which are not rented)"><path d="M62.92,627.32 C71.62,717.65 97.67,940.38 147.09,994 C165.26,1013.72 184.5356,1024.631 210.1556,1032.831 " fill="none" id="Admin account-to-Print all available\nmovies\n(which are not rented)" style="stroke:#181818;stroke-width:1.0;"/><polygon fill="#181818" points="215.87,1034.66,208.5177,1028.1069,211.108,1033.1359,206.079,1035.7262,215.87,1034.66" style="stroke:#181818;stroke-width:1.0;"/></g><!--link Admin account to Add new user--><g id="link_Admin account_Add new user"><path d="M61.56,627.61 C66.64,683.01 84.48,784.3 147.09,838 C177.73,864.28 216.1586,872.608 253.3686,874.608 " fill="none" id="Admin account-to-Add new user" style="stroke:#181818;stroke-width:1.0;"/><polygon fill="#181818" points="259.36,874.93,250.5877,870.4527,254.3672,874.6616,250.1583,878.4412,259.36,874.93" style="stroke:#181818;stroke-width:1.0;"/></g><!--link Admin account to Delete user--><g id="link_Admin account_Delete user"><path d="M67.08,627.41 C77.47,669.7 100.49,736.41 147.09,772 C180.16,797.26 220.4174,805.0714 257.9474,806.9414 " fill="none" id="Admin account-to-Delete user" style="stroke:#181818;stroke-width:1.0;"/><polygon fill="#181818" points="263.94,807.24,255.1502,802.7971,258.9462,806.9912,254.7521,810.7872,263.94,807.24" style="stroke:#181818;stroke-width:1.0;"/></g><!--link Admin account to Edit user--><g id="link_Admin account_Edit user"><path d="M77.91,627.63 C92.76,654.52 116.26,688.86 147.09,708 C184.71,731.36 228.7277,738.507 266.6977,740.427 " fill="none" id="Admin account-to-Edit user" style="stroke:#181818;stroke-width:1.0;"/><polygon fill="#181818" points="272.69,740.73,263.9035,736.2806,267.6964,740.4775,263.4995,744.2704,272.69,740.73" style="stroke:#181818;stroke-width:1.0;"/></g><!--link Admin account to Show all users--><g id="link_Admin account_Show all users"><path d="M111.41,622.37 C122.82,628.63 135.1,634.59 147.09,639 C184.08,652.59 221.4512,660.1155 256.4812,665.1555 " fill="none" id="Admin account-to-Show all users" style="stroke:#181818;stroke-width:1.0;"/><polygon fill="#181818" points="262.42,666.01,254.0814,660.7691,257.471,665.2979,252.9421,668.6875,262.42,666.01" style="stroke:#181818;stroke-width:1.0;"/></g><!--link Admin account to Return rented movie\n(must be returned within 2 days)--><g id="link_Admin account_Return rented movie\n(must be returned within 2 days)"><path d="M111.4,589 C131.31,589 149.18,589 173.69,589 " fill="none" id="Admin account-to-Return rented movie\n(must be returned within 2 days)" style="stroke:#181818;stroke-width:1.0;"/><polygon fill="#181818" points="179.69,589,170.69,585,174.69,589,170.69,593,179.69,589" style="stroke:#181818;stroke-width:1.0;"/></g><!--link Admin account to Print all rented movies\nfrom specific user--><g id="link_Admin account_Print all rented movies\nfrom specific user"><path d="M111.12,556.37 C122.66,549.98 135.05,543.79 147.09,539 C174.94,527.93 200.5084,520.4795 229.2584,513.7395 " fill="none" id="Admin account-to-Print all rented movies\nfrom specific user" style="stroke:#181818;stroke-width:1.0;"/><polygon fill="#181818" points="235.1,512.37,225.4246,510.5298,230.232,513.5112,227.2506,518.3186,235.1,512.37" style="stroke:#181818;stroke-width:1.0;"/></g><!--link Admin account to Print collection of all rentals\n(with history)--><g id="link_Admin account_Print collection of all rentals\n(with history)"><path d="M74.45,550.5 C88.54,519.13 112.69,476.06 147.09,451 C166.81,436.64 184.781,428.3333 208.491,421.4033 " fill="none" id="Admin account-to-Print collection of all rentals\n(with history)" style="stroke:#181818;stroke-width:1.0;"/><polygon fill="#181818" points="214.25,419.72,204.4893,418.4055,209.4508,421.1227,206.7336,426.0843,214.25,419.72" style="stroke:#181818;stroke-width:1.0;"/></g><!--link Admin account to Show card of rentals from\nspecific user\n(with history)--><g id="link_Admin account_Show card of rentals from\nspecific user\n(with history)"><path d="M63.64,550.36 C71.13,499.01 91.76,408.77 147.09,357 C164.39,340.81 180.6503,331.4001 203.2203,323.3301 " fill="none" id="Admin account-to-Show card of rentals from\nspecific user\n(with history)" style="stroke:#181818;stroke-width:1.0;"/><polygon fill="#181818" points="208.87,321.31,199.0487,320.5736,204.1619,322.9934,201.7421,328.1066,208.87,321.31" style="stroke:#181818;stroke-width:1.0;"/></g><!--link User account to Print all available\nmovies\n(which are not rented)--><g id="link_User account_Print all available\nmovies\n(which are not rented)"><path d="M105.07,1125.41 C118.36,1118.24 133.08,1110.86 147.09,1105 C175.52,1093.11 201.6365,1084.1755 230.6265,1075.4155 " fill="none" id="User account-to-Print all available\nmovies\n(which are not rented)" style="stroke:#181818;stroke-width:1.0;"/><polygon fill="#181818" points="236.37,1073.68,226.5977,1072.4543,231.5837,1075.1263,228.9118,1080.1123,236.37,1073.68" style="stroke:#181818;stroke-width:1.0;"/></g><!--link User account to Print collection of my rentals\n(with history)--><g id="link_User account_Print collection of my rentals\n(with history)"><path d="M104.86,1152 C129.03,1152 154.21,1152 185.56,1152 " fill="none" id="User account-to-Print collection of my rentals\n(with history)" style="stroke:#181818;stroke-width:1.0;"/><polygon fill="#181818" points="191.56,1152,182.56,1148,186.56,1152,182.56,1156,191.56,1152" style="stroke:#181818;stroke-width:1.0;"/></g><!--link User account to Book movie\n(maximum of 3 movies at one time)--><g id="link_User account_Book movie\n(maximum of 3 movies at one time)"><path d="M105,1178.77 C118.29,1185.95 133.03,1193.29 147.09,1199 C171.52,1208.93 192.7594,1216.0719 218.2994,1223.5119 " fill="none" id="User account-to-Book movie\n(maximum of 3 movies at one time)" style="stroke:#181818;stroke-width:1.0;"/><polygon fill="#181818" points="224.06,1225.19,216.5379,1218.8325,219.2595,1223.7916,214.3004,1226.5132,224.06,1225.19" style="stroke:#181818;stroke-width:1.0;"/></g><!--SRC=[hLHDJyCm3BttLrWziSE417Saq3WY8IOuxM9ITxMMZobn6HNYlvEi0yP8npQnKnNxlRndlqnJBI0EFCyRWOezAM5dYx1WkqIF1fQe5ZYdgNIQ89NHpZKLnTSdb9EdoVcDRiSUEtWWAwZXphqm1PXsGSYKy5P0_BM158O8kAugiBG2axhAdxK9QHBgIpDxvgpkW6kmJkBjLgWQxG1kAvOiqxHnAuYGQ0gKqxgtDhEkxjl3Jl-zPok0MWE-86jyrb50tnc5h1fM3M3a6fRowIiU-BojJ6MjFtE-bf_KfDgkrXld5bypClZAfZKGZLrkh04AE4iWR6XNvGD9w-t6mZT96mIUqufJDHPMB0rRk80Akp0QdDKsJPnJxPs1i2J5DQkShHxvlO-a-fC7zNhIyM9eE8ZptIWt58M-Ih0D1DATC_lZqZzeSY9CDwpXlIZYSaqS1ohbMYibZCTNluASxJaaq5dWTh2p3GS4F8ixAUXx_VTxtcT_JyVM0nYskVKGiaqdXlgF-HmGxZqCHuHysFX9OI_AntZ-BsiV93hyzUGuZli3-m00]--></g></svg>