<svg xmlns="http://www.w3.org/2000/svg" xmlns:xlink="http://www.w3.org/1999/xlink" contentStyleType="text/css" height="164px" preserveAspectRatio="none" style="width:1255px;height:164px;background:#FFFFFF;" version="1.1" viewBox="0 0 1255 164" width="1255px" zoomAndPan="magnify"><defs/><g><!--cluster Backend--><g id="cluster_Backend"><path d="M8.5,6 L76.7109,6 A3.75,3.75 0 0 1 79.2109,8.5 L86.2109,28.2969 L1063.5,28.2969 A2.5,2.5 0 0 1 1066,30.7969 L1066,154.52 A2.5,2.5 0 0 1 1063.5,157.02 L8.5,157.02 A2.5,2.5 0 0 1 6,154.52 L6,8.5 A2.5,2.5 0 0 1 8.5,6 " fill="none" style="stroke:#000000;stroke-width:1.5;"/><line style="stroke:#000000;stroke-width:1.5;" x1="6" x2="86.2109" y1="28.2969" y2="28.2969"/><text fill="#000000" font-family="sans-serif" font-size="14" font-weight="bold" lengthAdjust="spacing" textLength="67.2109" x="10" y="20.9951">Backend</text></g><!--cluster Frontend--><g id="cluster_Frontend"><path d="M1108.5,6 L1181.7285,6 A3.75,3.75 0 0 1 1184.2285,8.5 L1191.2285,28.2969 L1245.5,28.2969 A2.5,2.5 0 0 1 1248,30.7969 L1248,154.52 A2.5,2.5 0 0 1 1245.5,157.02 L1108.5,157.02 A2.5,2.5 0 0 1 1106,154.52 L1106,8.5 A2.5,2.5 0 0 1 1108.5,6 " fill="none" style="stroke:#000000;stroke-width:1.5;"/><line style="stroke:#000000;stroke-width:1.5;" x1="1106" x2="1191.2285" y1="28.2969" y2="28.2969"/><text fill="#000000" font-family="sans-serif" font-size="14" font-weight="bold" lengthAdjust="spacing" textLength="72.2285" x="1110" y="20.9951">Frontend</text></g><!--entity FluentAssertions--><g id="elem_FluentAssertions"><path d="M32.6,93.72 L179.393,93.72 A3.75,3.75 0 0 1 181.893,96.22 L188.893,116.0169 L203.393,116.0169 A2.5,2.5 0 0 1 205.893,118.5169 L205.893,130.5169 A2.5,2.5 0 0 1 203.393,133.0169 L32.6,133.0169 A2.5,2.5 0 0 1 30.1,130.5169 L30.1,96.22 A2.5,2.5 0 0 1 32.6,93.72 " fill="#F1F1F1" style="stroke:#181818;stroke-width:0.5;"/><line style="stroke:#181818;stroke-width:0.5;" x1="30.1" x2="188.893" y1="116.0169" y2="116.0169"/><text fill="#000000" font-family="sans-serif" font-size="14" font-weight="bold" lengthAdjust="spacing" textLength="133.793" x="40.1" y="109.7151">FluentAssertions</text></g><!--entity Microsoft.AspNetCore.Mvc.Testing--><g id="elem_Microsoft.AspNetCore.Mvc.Testing"><path d="M243.58,93.72 L530.4208,93.72 A3.75,3.75 0 0 1 532.9208,96.22 L539.9208,116.0169 L554.4208,116.0169 A2.5,2.5 0 0 1 556.9208,118.5169 L556.9208,130.5169 A2.5,2.5 0 0 1 554.4208,133.0169 L243.58,133.0169 A2.5,2.5 0 0 1 241.08,130.5169 L241.08,96.22 A2.5,2.5 0 0 1 243.58,93.72 " fill="#F1F1F1" style="stroke:#181818;stroke-width:0.5;"/><line style="stroke:#181818;stroke-width:0.5;" x1="241.08" x2="539.9208" y1="116.0169" y2="116.0169"/><text fill="#000000" font-family="sans-serif" font-size="14" font-weight="bold" lengthAdjust="spacing" textLength="273.8408" x="251.08" y="109.7151">Microsoft.AspNetCore.Mvc.Testing</text></g><!--entity MongoDB.Driver--><g id="elem_MongoDB.Driver"><path d="M594.69,93.72 L737.3062,93.72 A3.75,3.75 0 0 1 739.8062,96.22 L746.8062,116.0169 L761.3062,116.0169 A2.5,2.5 0 0 1 763.8062,118.5169 L763.8062,130.5169 A2.5,2.5 0 0 1 761.3062,133.0169 L594.69,133.0169 A2.5,2.5 0 0 1 592.19,130.5169 L592.19,96.22 A2.5,2.5 0 0 1 594.69,93.72 " fill="#F1F1F1" style="stroke:#181818;stroke-width:0.5;"/><line style="stroke:#181818;stroke-width:0.5;" x1="592.19" x2="746.8062" y1="116.0169" y2="116.0169"/><text fill="#000000" font-family="sans-serif" font-size="14" font-weight="bold" lengthAdjust="spacing" textLength="129.6162" x="602.19" y="109.7151">MongoDB.Driver</text></g><!--entity Swashbuckle.AspNetCore--><g id="elem_Swashbuckle.AspNetCore"><path d="M800.82,93.72 L1015.1794,93.72 A3.75,3.75 0 0 1 1017.6794,96.22 L1024.6794,116.0169 L1039.1794,116.0169 A2.5,2.5 0 0 1 1041.6794,118.5169 L1041.6794,130.5169 A2.5,2.5 0 0 1 1039.1794,133.0169 L800.82,133.0169 A2.5,2.5 0 0 1 798.32,130.5169 L798.32,96.22 A2.5,2.5 0 0 1 800.82,93.72 " fill="#F1F1F1" style="stroke:#181818;stroke-width:0.5;"/><line style="stroke:#181818;stroke-width:0.5;" x1="798.32" x2="1024.6794" y1="116.0169" y2="116.0169"/><text fill="#000000" font-family="sans-serif" font-size="14" font-weight="bold" lengthAdjust="spacing" textLength="201.3594" x="808.32" y="109.7151">Swashbuckle.AspNetCore</text></g><!--entity JQuery--><g id="elem_JQuery"><path d="M1132.2,93.72 L1197.8025,93.72 A3.75,3.75 0 0 1 1200.3025,96.22 L1207.3025,116.0169 L1221.8025,116.0169 A2.5,2.5 0 0 1 1224.3025,118.5169 L1224.3025,130.5169 A2.5,2.5 0 0 1 1221.8025,133.0169 L1132.2,133.0169 A2.5,2.5 0 0 1 1129.7,130.5169 L1129.7,96.22 A2.5,2.5 0 0 1 1132.2,93.72 " fill="#F1F1F1" style="stroke:#181818;stroke-width:0.5;"/><line style="stroke:#181818;stroke-width:0.5;" x1="1129.7" x2="1207.3025" y1="116.0169" y2="116.0169"/><text fill="#000000" font-family="sans-serif" font-size="14" font-weight="bold" lengthAdjust="spacing" textLength="52.6025" x="1139.7" y="109.7151">JQuery</text></g><!--link Backend to FluentAssertions--><g id="link_Backend_FluentAssertions"><path d="M537.49,33.76 C526.99,34.51 357,46.92 224,77.72 C206.27,81.83 192.9621,87.475 176.0121,93.125 " fill="none" id="Backend-to-FluentAssertions" style="stroke:#181818;stroke-width:1.0;"/><polygon fill="#181818" points="170.32,95.0224,180.1231,95.971,175.0634,93.4412,177.5932,88.3816,170.32,95.0224" style="stroke:#181818;stroke-width:1.0;"/></g><!--link Backend to Microsoft.AspNetCore.Mvc.Testing--><g id="link_Backend_Microsoft.AspNetCore.Mvc.Testing"><path d="M537.6,33.95 C532.14,37.04 477.0116,68.2245 437.7716,90.4345 " fill="none" id="Backend-to-Microsoft.AspNetCore.Mvc.Testing" style="stroke:#181818;stroke-width:1.0;"/><polygon fill="#181818" points="432.55,93.39,442.3527,92.4379,436.9013,90.9271,438.4121,85.4757,432.55,93.39" style="stroke:#181818;stroke-width:1.0;"/></g><!--link Backend to MongoDB.Driver--><g id="link_Backend_MongoDB.Driver"><path d="M538.4,33.95 C543.9,37.04 599.4491,68.241 638.9791,90.451 " fill="none" id="Backend-to-MongoDB.Driver" style="stroke:#181818;stroke-width:1.0;"/><polygon fill="#181818" points="644.21,93.39,638.323,85.4942,639.8509,90.9408,634.4043,92.4688,644.21,93.39" style="stroke:#181818;stroke-width:1.0;"/></g><!--link Backend to Swashbuckle.AspNetCore--><g id="link_Backend_Swashbuckle.AspNetCore"><path d="M538.39,33.78 C546.45,35.03 677.05,55.38 781,77.72 C802.64,82.37 820.2091,86.5248 841.5291,91.8548 " fill="none" id="Backend-to-Swashbuckle.AspNetCore" style="stroke:#181818;stroke-width:1.0;"/><polygon fill="#181818" points="847.35,93.31,839.5889,87.2466,842.4993,92.0973,837.6486,95.0077,847.35,93.31" style="stroke:#181818;stroke-width:1.0;"/></g><!--link Frontend to JQuery--><g id="link_Frontend_JQuery"><path d="M1177,33.95 C1177,37.05 1177,65.38 1177,87.58 " fill="none" id="Frontend-to-JQuery" style="stroke:#181818;stroke-width:1.0;"/><polygon fill="#181818" points="1177,93.58,1181,84.58,1177,88.58,1173,84.58,1177,93.58" style="stroke:#181818;stroke-width:1.0;"/></g><!--SRC=[XOz12i8m403lUKN8lNc2q5ey21L4Fr3ZMaDBjkmc5H7_RgaMJIYOqv8Pbjc-DctTW5J5E80xA_aGSdpz_B_f0ZYVCmDvYuvLZ2jh21alNkVSxy2laK1NWz57O6zTa-he6YmBNP8TW19ukDLyFGNJTl2pJOcd4DySGkUNEhVx07IVvCyfCijMCisFuB_uM8xI8xGSBiGSEqdlm1S0]--></g></svg>